<svg>
<symbol id="vk-icon"  viewBox="0 0 15 8" fill="none" xmlns="http://www.w3.org/2000/svg">
<path d="M12.9919 4.54405C13.458 4.94874 13.9522 5.32781 14.371 5.77177C14.5554 5.96729 14.731 6.17305 14.8652 6.401C15.0553 6.72629 14.8845 7.08487 14.5544 7.10451L12.5016 7.10365C11.9727 7.14293 11.5509 6.95424 11.1948 6.63408C10.911 6.37795 10.6475 6.10645 10.3744 5.84093C10.2624 5.73421 10.1457 5.6309 10.0057 5.5515C9.72582 5.39099 9.4826 5.43966 9.32239 5.6992C9.15928 5.96131 9.1226 6.25159 9.1062 6.54529C9.084 6.97217 8.93826 7.08487 8.4528 7.10365C7.41624 7.14805 6.43179 7.00888 5.51781 6.54614C4.71191 6.13804 4.0865 5.56175 3.54216 4.90947C2.48244 3.64077 1.67172 2.24571 0.942076 0.811377C0.778003 0.488652 0.898645 0.313629 1.30111 0.308507C1.97092 0.296554 2.63976 0.298262 3.30957 0.308507C3.5827 0.310214 3.76222 0.448525 3.86742 0.676481C4.22934 1.46366 4.67234 2.21326 5.22826 2.90738C5.37593 3.09265 5.52746 3.27791 5.74268 3.40769C5.98011 3.55197 6.16155 3.50331 6.27351 3.27023C6.34493 3.12082 6.37582 2.96117 6.39222 2.80151C6.44531 2.25339 6.45206 1.70613 6.35941 1.16142C6.3015 0.820768 6.08434 0.599642 5.70022 0.534756C5.50429 0.503166 5.53421 0.437426 5.6288 0.338389C5.79384 0.168489 5.94826 0.0617676 6.25807 0.0617676H8.57634C8.94116 0.124946 9.02223 0.270087 9.07242 0.595373L9.07435 2.87323C9.07049 2.99959 9.14577 3.37268 9.40153 3.45635C9.60711 3.51526 9.74222 3.37012 9.8648 3.25572C10.4188 2.73406 10.8145 2.1185 11.1697 1.48073C11.327 1.19984 11.4621 0.90956 11.5924 0.617571C11.6899 0.402421 11.8424 0.2957 12.1165 0.299969L14.3488 0.301677C14.4145 0.301677 14.482 0.30253 14.5457 0.312776C14.9221 0.368271 15.0244 0.511704 14.9086 0.83699C14.7262 1.34754 14.3701 1.77187 14.0217 2.1979C13.6491 2.65296 13.2515 3.0935 12.8818 3.55197C12.544 3.97032 12.5701 4.1812 12.9919 4.54405Z" fill="white"/>
</symbol>

<symbol id="odnoclas-icon" viewBox="0 0 8 13" fill="none" xmlns="http://www.w3.org/2000/svg">
<path d="M3.47306 9.25709C2.47403 9.15698 1.57325 8.92059 0.802046 8.3411C0.706354 8.269 0.607557 8.1995 0.520233 8.11897C0.182679 7.80751 0.148667 7.45079 0.415768 7.08317C0.644269 6.76859 1.02785 6.68444 1.42654 6.86507C1.50374 6.90008 1.5773 6.94378 1.64775 6.99072C3.08503 7.93951 5.05947 7.9657 6.50214 7.03338C6.64507 6.92809 6.79785 6.84225 6.97493 6.79842C7.31923 6.71348 7.64032 6.83498 7.82509 7.12441C8.03618 7.45494 8.03348 7.77755 7.7734 8.03417C7.37444 8.42759 6.89463 8.71221 6.3615 8.91087C5.8574 9.09863 5.30525 9.19316 4.75876 9.25592C4.84123 9.34215 4.8801 9.38455 4.93165 9.43435C5.67371 10.1506 6.419 10.864 7.15862 11.5825C7.41061 11.8273 7.46325 12.1308 7.3245 12.4156C7.1728 12.7268 6.83322 12.9315 6.50025 12.9096C6.2893 12.8956 6.12477 12.7947 5.9786 12.6533C5.41862 12.1119 4.84811 11.5805 4.29947 11.0289C4.1398 10.8685 4.063 10.8988 3.9221 11.0381C3.35874 11.5953 2.78621 12.1439 2.2103 12.6894C1.9517 12.9344 1.64397 12.9785 1.34408 12.8386C1.02528 12.6901 0.822426 12.3775 0.838082 12.0633C0.84888 11.8507 0.957664 11.6884 1.1095 11.5428C1.84386 10.8383 2.5762 10.132 3.3088 9.4263C3.35726 9.37936 3.40247 9.32957 3.47306 9.25709Z" fill="white"/>
<path d="M4.081 6.8032C2.29875 6.79737 0.837319 5.37787 0.847711 3.66286C0.857969 1.92891 2.32034 0.531591 4.12014 0.536389C5.92358 0.541057 7.37111 1.95848 7.36207 3.71045C7.35289 5.42196 5.88133 6.80917 4.081 6.8032ZM5.70075 3.66701C5.69764 2.81547 4.99176 2.13755 4.10718 2.13677C3.21518 2.13587 2.50296 2.8261 2.50984 3.68542C2.51645 4.53372 3.22841 5.20684 4.11542 5.20372C4.99973 5.20074 5.70372 4.51842 5.70075 3.66701Z" fill="white"/>
</symbol>

<symbol id="facebook-icon"  viewBox="0 0 8 12" fill="none" xmlns="http://www.w3.org/2000/svg">
<path d="M6.8679 0.0486199L5.3483 0.046875C3.64037 0.046875 2.53734 1.18545 2.53734 2.94611V4.28361H1.00906C0.877144 4.28361 0.769531 4.39093 0.769531 4.52529V6.46218C0.769531 6.59392 0.877144 6.70211 1.00906 6.70211H2.53734V11.5915C2.53734 11.7249 2.64408 11.8296 2.776 11.8296H4.77031C4.90222 11.8296 5.00897 11.7249 5.00897 11.5915V6.70211H6.79673C6.92778 6.70211 7.03539 6.59392 7.03539 6.46218V4.52529C7.03539 4.45985 7.01022 4.39965 6.96596 4.35515C6.91997 4.30891 6.86009 4.28361 6.79673 4.28361H5.00897V3.15114C5.00897 2.60584 5.13828 2.33014 5.84384 2.33014H6.8679C6.99981 2.33014 7.10656 2.22195 7.10656 2.08934V0.289423C7.10656 0.155934 6.99981 0.0486199 6.8679 0.0486199Z" fill="white"/>
</symbol>

<symbol id="insta-icon" viewBox="0 0 12 12" fill="none" xmlns="http://www.w3.org/2000/svg">
<path fill-rule="evenodd" clip-rule="evenodd" d="M10.9734 2.84835C10.8368 1.72764 10.23 1.01597 9.16914 0.787914C8.72946 0.693074 8.2688 0.666286 7.81683 0.661219C6.45945 0.645291 5.10279 0.651083 3.74614 0.659047C3.39685 0.660495 3.04684 0.688006 2.69972 0.728548C1.99969 0.811082 1.40091 1.08909 0.99088 1.69144C0.682812 2.1432 0.569276 2.65939 0.550473 3.19441C0.517931 4.10517 0.507807 5.01666 0.488281 5.92742C0.495513 5.92742 0.502745 5.92814 0.509253 5.92814C0.509253 6.4885 0.499852 7.04958 0.512146 7.60922C0.52227 8.0827 0.533841 8.55907 0.588078 9.02821C0.717524 10.1496 1.3286 10.8606 2.3902 11.0894C2.83061 11.1842 3.29127 11.211 3.74324 11.2168C5.09339 11.232 6.44426 11.2269 7.79585 11.2182C8.1502 11.2168 8.50745 11.1922 8.86108 11.1487C9.97764 11.0126 10.6863 10.4038 10.9141 9.33879C11.0089 8.89789 11.0356 8.43527 11.0407 7.98206C11.0566 6.62678 11.0515 5.27222 11.0436 3.91694C11.04 3.56074 11.0161 3.20237 10.9734 2.84835ZM5.7775 9.25988C3.96381 9.25843 2.4712 7.76053 2.46975 5.94117C2.4683 4.12182 3.95875 2.62247 5.77316 2.61813C7.58686 2.61451 9.08309 4.10734 9.08959 5.92742C9.0961 7.75401 7.59771 9.26133 5.7775 9.25988ZM9.22193 3.26753C8.80611 3.27115 8.44598 2.91496 8.44236 2.49505C8.43802 2.07297 8.78876 1.71967 9.21181 1.71822C9.63992 1.71605 9.98415 2.05704 9.98632 2.48564C9.98921 2.91206 9.64426 3.26391 9.22193 3.26753ZM5.80281 3.78952C4.61393 3.77721 3.6514 4.72128 3.63694 5.91149C3.6232 7.1046 4.56114 8.07184 5.74713 8.08849C6.94324 8.10441 7.91228 7.15601 7.92241 5.95783C7.93253 4.76544 6.9888 3.8011 5.80281 3.78952Z" fill="white"/>
<path d="M10.4564 2.7663C10.4642 2.81255 10.4712 2.86007 10.4771 2.90888C10.5176 3.24465 10.5401 3.58413 10.5436 3.92095C10.5515 5.27558 10.5566 6.62601 10.5407 7.97619L10.5407 7.97648C10.5358 8.41705 10.5097 8.84103 10.4253 9.23376L10.4252 9.23421C10.3301 9.67891 10.1431 9.99555 9.89147 10.216C9.63771 10.4382 9.2825 10.5937 8.80057 10.6524L8.80011 10.6525C8.46406 10.6937 8.12657 10.7169 7.79381 10.7182L7.79264 10.7182C6.44167 10.7269 5.09456 10.732 3.74915 10.7168C3.30954 10.7112 2.88767 10.685 2.49554 10.6006L10.4564 2.7663ZM10.4564 2.7663C10.3313 3.33189 9.8297 3.76231 9.22629 3.76751L10.4564 2.7663ZM9.21181 1.71822L9.21042 1.31283C9.57648 1.41528 9.84591 1.58767 10.0406 1.81151C10.1917 1.98521 10.312 2.20636 10.3921 2.48289L10.4863 2.48225C10.4863 2.48229 10.4863 2.48232 10.4863 2.48236C10.4863 2.48261 10.4863 2.48286 10.4863 2.48311L10.3923 2.48358L9.20975 1.31264L9.21181 1.71822ZM9.21181 1.71822C8.78876 1.71967 8.43802 2.07297 8.44236 2.49505M9.21181 1.71822L8.44236 2.49505M8.44236 2.49505L7.94238 2.49935C7.94238 2.49958 7.94239 2.4998 7.94239 2.50003M8.44236 2.49505L7.94239 2.50019C7.94239 2.50014 7.94239 2.50008 7.94239 2.50003M8.93111 1.25045C8.57764 1.18666 8.20127 1.16556 7.81122 1.16119L7.81096 1.16118C6.45842 1.14531 5.10568 1.15107 3.74907 1.15904L3.74821 1.15904C3.42331 1.16039 3.09301 1.18602 2.75798 1.22514C2.16208 1.29545 1.71253 1.51987 1.4042 1.9728L1.40397 1.97314C1.16671 2.32107 1.06694 2.73452 1.05016 3.21197L1.05015 3.21226C1.02739 3.84925 1.01572 4.48418 1.00396 5.12399C1.0021 5.22525 1.00024 5.32662 0.99833 5.42814H1.00925V5.92814C1.00925 6.10314 1.00838 6.27569 1.00751 6.44674C1.00553 6.83461 1.0036 7.21477 1.01203 7.59823L1.01203 7.59853C1.02221 8.07461 1.03362 8.52837 1.08477 8.97079L1.08478 8.97087C1.14059 9.45435 1.29513 9.81072 1.5167 10.0652C1.73652 10.3177 2.05272 10.5051 2.49546 10.6006L8.93111 1.25045ZM8.93111 1.25045C8.36484 1.38126 7.93624 1.89442 7.94239 2.50003M8.93111 1.25045L9.22622 3.76751C9.10443 3.76857 8.98611 3.7516 8.87374 3.71917C9.32123 4.34299 9.58666 5.1054 9.58959 5.92564C9.59708 8.02766 7.87586 9.76155 5.7771 9.75988C3.68599 9.75821 1.97142 8.03516 1.96975 5.94157C1.96809 3.84769 3.68043 2.12313 5.77197 2.11813L5.77217 2.11813C6.59731 2.11648 7.36449 2.38288 7.99142 2.83473C7.9605 2.72771 7.94344 2.61541 7.94239 2.50003M5.79793 4.28949L5.79764 4.28949C4.88575 4.28005 4.1482 5.00184 4.1369 5.91725C4.1369 5.91728 4.1369 5.91731 4.1369 5.91734M5.79793 4.28949L3.63694 5.91149L4.1369 5.91757C4.1369 5.91749 4.1369 5.91742 4.1369 5.91734M5.79793 4.28949C6.7061 4.29836 7.43022 5.03513 7.42243 5.95358L7.42243 5.9536C7.41464 6.87495 6.67265 7.60057 5.75415 7.58854M5.79793 4.28949L5.75415 7.58854M4.1369 5.91734C4.12636 6.83736 4.84639 7.57579 5.75415 7.58854M4.1369 5.91734L5.75415 7.58854M7.79585 11.2182C8.1502 11.2168 8.50745 11.1922 8.86108 11.1487L7.79585 11.2182Z" stroke="white" stroke-opacity="0.08"/>
</symbol>

</svg>
